<?xml version="1.0" standalone="no"?>
<!DOCTYPE svg PUBLIC "-//W3C//DTD SVG 20010904//EN"
 "http://www.w3.org/TR/2001/REC-SVG-20010904/DTD/svg10.dtd">
<svg version="1.0" xmlns="http://www.w3.org/2000/svg"
 width="160.000000pt" height="160.000000pt" viewBox="0 0 160.000000 160.000000"
 preserveAspectRatio="xMidYMid meet">
<metadata>
Created by potrace 1.11, written by Peter Selinger 2001-2013
</metadata>
<g transform="translate(0.000000,160.000000) scale(0.100000,-0.100000)"
fill="#000000" stroke="none">
<path d="M1340 1519 c-196 -36 -400 -156 -585 -343 -49 -51 -108 -105 -130
-121 -22 -17 -42 -33 -45 -36 -3 -3 -21 -14 -40 -24 -27 -15 -58 -19 -142 -20
l-108 -1 -36 -39 c-102 -111 -217 -277 -239 -344 -7 -22 -5 -23 27 -15 18 4
87 8 153 9 l119 0 36 52 c36 54 50 60 111 55 29 -3 36 -7 32 -22 -3 -11 -11
-16 -21 -13 -10 2 -31 -9 -49 -27 -25 -25 -30 -36 -23 -49 7 -14 1 -21 -28
-37 -70 -36 -122 -75 -122 -91 0 -8 -11 -24 -25 -35 -14 -11 -25 -26 -25 -33
0 -8 -11 -25 -25 -39 -14 -14 -26 -34 -26 -46 -2 -36 -4 -39 -24 -54 -14 -10
-20 -27 -21 -58 -2 -42 -16 -115 -30 -151 -6 -16 -3 -15 30 4 25 14 47 20 69
16 31 -4 77 9 77 23 0 8 91 45 103 42 17 -5 89 41 99 63 6 14 19 27 30 31 10
3 26 18 35 32 9 15 22 32 28 37 6 6 24 27 39 48 16 20 33 37 40 37 6 0 29 21
50 45 22 25 43 45 48 45 5 0 8 -17 6 -37 -3 -32 -10 -42 -53 -72 l-50 -35 1
-138 c0 -76 3 -140 6 -143 3 -3 32 10 64 30 33 20 68 41 79 48 11 7 22 14 25
17 3 3 27 23 55 45 27 22 68 57 90 78 22 20 42 37 46 37 3 0 5 42 5 93 -1 129
19 168 135 266 20 17 44 31 53 31 9 0 16 3 16 8 0 4 36 44 79 90 71 73 111
127 216 292 16 25 28 46 27 47 -1 2 6 22 14 45 18 49 20 59 38 148 20 104 10
176 -26 199 -26 16 -144 22 -208 10z"/>
<path d="M127 383 c-14 -13 -6 -33 13 -33 22 0 23 1 14 24 -7 17 -16 20 -27 9z"/>
<path d="M110 300 c0 -5 5 -10 10 -10 6 0 10 5 10 10 0 6 -4 10 -10 10 -5 0
-10 -4 -10 -10z"/>
<path d="M335 89 c-4 -6 -5 -13 -2 -16 7 -7 27 6 27 18 0 12 -17 12 -25 -2z"/>
</g>
</svg>
